<svg viewBox="0 0 202 202" fill="none" xmlns="http://www.w3.org/2000/svg">
<circle cx="100.702" cy="100.702" r="100.702" fill="#0094FF"/>
<path fill-rule="evenodd" clip-rule="evenodd" d="M143.792 106.575C143.502 108.5 142.769 110.331 141.649 111.925C140.53 113.518 139.056 114.829 137.342 115.755C136.868 116.018 136.371 116.239 135.858 116.415C136.51 125.053 122.777 128.194 115.376 126.137L118.126 135.749L111.055 136L98.6818 118.292C94.5101 119.47 89.5842 120.035 86.4025 114.931C86.1134 114.462 85.8511 113.977 85.6168 113.478C84.8075 113.643 83.9838 113.727 83.1578 113.729C80.801 113.729 76.8728 113.022 74.8774 111.64C73.2953 110.592 72.0403 109.12 71.2556 107.392C67.0054 107.973 63.3994 106.976 61.0425 104.51C58.0571 101.44 57.2087 96.3665 58.7642 90.9245C60.8147 83.6606 67.0525 75.4779 79.4497 72.4074C80.5251 71.071 81.8122 69.9198 83.26 68.9993C91.0455 64.0127 103.686 63.5808 113.279 68.3161C116.998 67.6236 120.836 67.991 124.356 69.3762C131.254 71.9598 136.266 77.3626 137.209 82.8517C139.076 83.819 140.605 85.3307 141.593 87.1865C143.659 91.0659 143.949 94.953 142.559 98.0942C143.869 100.716 144.301 103.689 143.792 106.575ZM138.701 102.492C137.603 103.071 136.381 103.374 135.139 103.374C133.897 103.374 132.674 103.071 131.576 102.492L132.149 98.6831C134.569 98.9187 136.541 98.1649 137.57 96.6178C138.725 94.8981 138.544 92.3459 137.083 89.6052C135.449 86.5347 131.922 86.0479 129.965 86.0243H129.84C124.937 86.0243 119.941 88.8121 117.922 92.448L114.983 91.0423C115.561 89.1693 116.543 87.4457 117.859 85.9929C116.726 85.0312 115.869 83.7852 115.378 82.3829C114.886 80.9806 114.777 79.4727 115.062 78.0144L117.961 77.7474C118.094 78.9269 118.582 80.0382 119.36 80.9343C120.139 81.8304 121.172 82.4689 122.321 82.7654C124.739 81.6865 127.365 81.1504 130.012 81.1948C130.39 81.1948 130.751 81.234 131.12 81.2576C129.242 77.9289 126.265 75.3558 122.698 73.978C113.994 70.6013 108.125 75.8391 106.782 77.6453C103.545 81.9801 105.619 86.0793 107.198 88.7414L104.605 91.0973C102.348 89.145 100.832 86.474 100.316 83.5349C96.9927 84.5323 92.5303 84.3202 90.0321 80.0561L92.3889 78.4384C95.0365 80.4174 99.2396 80.2446 101.235 77.8023C101.711 76.7225 102.312 75.7024 103.026 74.7633C104.161 73.2657 105.53 71.9611 107.08 70.8997C100.567 69.1249 91.3676 69.4155 85.8054 72.9807C84.3023 73.8531 83.0651 75.118 82.2264 76.6397C81.3877 78.1615 80.9791 79.8827 81.0445 81.6188C81.0445 84.4223 83.2443 88.8513 86.2061 89.5424L84.4855 92.8799C82.5958 92.4424 80.8802 91.4496 79.5597 90.0293L77.0064 93.2804L74.4531 92.0396L76.9514 85.506C76.5432 84.237 76.3339 82.9125 76.3308 81.5796C76.337 80.5242 76.4476 79.4721 76.6607 78.4384C68.8045 81.6817 64.9235 87.0766 63.5015 92.0082C62.4095 95.8011 62.8337 99.225 64.625 101.063C66.0469 102.523 68.2231 102.869 70.2736 102.735L75.773 98.4554L77.5799 99.9789L75.9458 105.335C76.8021 108.059 79.6068 109.465 84.7212 108.476C84.9864 106.308 85.8425 104.254 87.1959 102.539C88.1884 101.111 89.5014 99.9365 91.0298 99.1072L93.7166 91.8747L96.4035 91.7569L96.1128 97.6858C100.63 97.2225 105.682 98.1413 110.388 97.4345L111.252 100.576C104.354 103.764 97.2912 98.5654 90.8884 105.421C88.5865 107.887 89.4664 110.031 90.8884 112.19C92.9389 115.276 96.7884 113.423 100.724 112.19C106.687 110.368 111.016 109.049 119.179 109.716C117.23 106.018 117.419 101.549 120.027 96.6335L123.869 98.1491C121.174 104.361 123.696 107.957 125.44 109.544C128.135 111.994 132.189 112.732 134.868 111.256C135.894 110.689 136.776 109.895 137.446 108.934C138.116 107.972 138.556 106.87 138.733 105.711C138.91 104.644 138.896 103.554 138.694 102.492H138.701Z" fill="white"/>
</svg>
