<svg  viewBox="0 0 202 202" fill="none" xmlns="http://www.w3.org/2000/svg">
<circle cx="100.702" cy="100.702" r="100.702" fill="#0094FF"/>
<path d="M140.898 130.03L125.124 114.258C124.412 113.547 123.447 113.151 122.435 113.151H119.856C124.223 107.567 126.817 100.544 126.817 92.903C126.817 74.7273 112.088 60 93.9087 60C75.7298 60 61 74.7273 61 92.903C61 111.079 75.7298 125.806 93.9087 125.806C101.55 125.806 108.575 123.212 114.16 118.846V121.424C114.16 122.437 114.556 123.402 115.268 124.113L131.042 139.885C132.529 141.372 134.934 141.372 136.405 139.885L140.883 135.408C142.37 133.921 142.37 131.517 140.898 130.03ZM93.9087 113.151C82.7229 113.151 73.6572 104.103 73.6572 92.903C73.6572 81.7192 82.7071 72.655 93.9087 72.655C105.094 72.655 114.16 81.7034 114.16 92.903C114.16 104.087 105.11 113.151 93.9087 113.151Z" fill="white"/>
</svg>
