<?xml version="1.0" encoding="UTF-8"?>
<svg id="Layer_1" data-name="Layer 1" xmlns="http://www.w3.org/2000/svg" viewBox="0 0 834.48 242.11">
  <defs>
    <style>
      .cls-1 {
        fill: #fff;
      }

      .cls-2 {
        fill-rule: evenodd;
      }

      .cls-2, .cls-3 {
        fill: #0094ff;
      }
    </style>
  </defs>
  <path class="cls-2" d="m834.13,72.28c-.5,3.35-1.75,6.53-3.67,9.3-1.92,2.77-4.44,5.05-7.38,6.66-.81.46-1.67.84-2.54,1.15,1.12,15.02-22.41,20.48-35.09,16.9l4.71,16.71-12.11.44-21.2-30.78c-7.15,2.05-15.59,3.03-21.04-5.84-.5-.82-.94-1.66-1.35-2.53-1.39.29-2.8.43-4.21.44-4.04,0-10.77-1.23-14.19-3.63-2.71-1.82-4.86-4.38-6.21-7.39-7.28,1.01-13.46-.72-17.5-5.01-5.12-5.34-6.57-14.16-3.9-23.62,3.51-12.63,14.2-26.85,35.44-32.19,1.84-2.32,4.05-4.32,6.53-5.92,13.34-8.67,35-9.42,51.43-1.19,6.37-1.2,12.95-.57,18.98,1.84,11.82,4.49,20.41,13.88,22.02,23.43,3.2,1.68,5.82,4.31,7.51,7.54,3.54,6.74,4.04,13.5,1.66,18.96,2.24,4.56,2.99,9.73,2.11,14.74Zm-8.72-7.07c-1.88,1.01-3.98,1.53-6.1,1.53s-4.22-.53-6.11-1.53l.98-6.62c4.15.41,7.53-.9,9.29-3.59,1.98-2.99,1.67-7.43-.83-12.19-2.8-5.34-8.84-6.18-12.2-6.23h-.22c-8.4,0-16.96,4.85-20.42,11.17l-5.04-2.44c.99-3.26,2.67-6.25,4.93-8.78-1.94-1.67-3.41-3.84-4.25-6.28-.84-2.44-1.03-5.06-.54-7.6l4.97-.46c.23,2.05,1.06,3.98,2.4,5.54,1.33,1.56,3.1,2.67,5.07,3.18,4.14-1.88,8.64-2.81,13.18-2.73.65,0,1.27.07,1.9.11-3.22-5.79-8.32-10.26-14.43-12.66-14.92-5.87-24.97,3.24-27.27,6.38-5.55,7.54-1.99,14.66.71,19.29l-4.44,4.1c-3.87-3.39-6.47-8.04-7.35-13.15-5.69,1.73-13.34,1.37-17.62-6.05l4.04-2.81c4.54,3.44,11.74,3.14,15.16-1.11.81-1.88,1.85-3.65,3.07-5.28,1.94-2.6,4.29-4.87,6.95-6.72-11.16-3.09-26.92-2.58-36.46,3.62-2.58,1.52-4.7,3.72-6.13,6.36-1.44,2.65-2.14,5.64-2.03,8.66,0,4.87,3.77,12.57,8.84,13.78l-2.95,5.8c-3.24-.76-6.18-2.49-8.44-4.96l-4.38,5.65-4.38-2.16,4.28-11.36c-.7-2.21-1.06-4.51-1.06-6.83.01-1.83.2-3.66.57-5.46-13.46,5.64-20.11,15.02-22.55,23.59-1.87,6.59-1.14,12.55,1.93,15.74,2.44,2.54,6.17,3.14,9.68,2.91l9.42-7.44,3.1,2.65-2.8,9.31c1.47,4.74,6.27,7.18,15.04,5.46.45-3.77,1.92-7.34,4.24-10.32,1.7-2.48,3.95-4.52,6.57-5.97l4.6-12.57,4.6-.2-.5,10.31c7.74-.81,16.4.79,24.46-.44l1.48,5.46c-11.82,5.54-23.92-3.5-34.89,8.42-3.94,4.29-2.44,8.01,0,11.77,3.51,5.37,10.11,2.14,16.85,0,10.22-3.17,17.64-5.46,31.62-4.3-3.34-6.43-3.02-14.2,1.45-22.75l6.58,2.64c-4.62,10.8-.3,17.05,2.69,19.81,4.62,4.26,11.56,5.54,16.15,2.98,1.76-.98,3.27-2.37,4.42-4.04,1.15-1.67,1.9-3.59,2.21-5.6.3-1.86.28-3.75-.07-5.6h.01Z"/>
  <path class="cls-1" d="m108.9,63.58h23.9v138.83h-23.9v-97.88l-33.46,75.65h-18.7L23.9,105.77v96.64H0V63.58l23.9.21,42.19,95.6,42.81-95.81Z"/>
  <path class="cls-1" d="m248.35,144.84v14.34h-75.23c.97,5.82,3.71,10.7,8.21,14.65,4.5,3.95,9.8,5.92,15.9,5.92h2.91c7.48,0,13.58-2.84,18.29-8.52l24.73,6.23c-4.02,7.9-9.84,14.24-17.46,19.02-7.62,4.78-16,7.17-25.15,7.17h-3.95c-13.16,0-24.42-4.67-33.77-14.03s-14.03-20.61-14.03-33.77v-9.56c0-13.16,4.68-24.42,14.03-33.77,9.35-9.35,20.61-14.03,33.77-14.03h3.95c13.02,0,24.14,4.5,33.36,13.51,9.21,9.01,14.03,19.95,14.44,32.84Zm-75.44,0h51.54c-.7-6.24-3.36-11.53-8-15.9-4.64-4.36-10.08-6.55-16.31-6.55h-2.91c-6.37,0-11.88,2.18-16.52,6.55-4.64,4.36-7.24,9.66-7.79,15.9Z"/>
  <path class="cls-1" d="m334.6,62.55h23.9v138.62h-23.69v-3.33c7.2-6.09,10.81-11.57,10.81-16.42v-4.16c-.28.7-.76,1.63-1.45,2.81-.69,1.18-2.22,3.29-4.57,6.34-2.36,3.05-4.89,5.75-7.59,8.1-2.7,2.36-6.34,4.47-10.91,6.34-4.57,1.87-9.35,2.81-14.34,2.81-13.17,0-24.42-4.67-33.77-14.03-9.35-9.35-14.03-20.61-14.03-33.77v-9.56c0-13.16,4.68-24.42,14.03-33.77,9.35-9.35,20.61-14.03,33.77-14.03,11.5,0,20.78,3.4,27.85,10.18v-46.14Zm0,92.69v-8.31c0-6.79-2.36-12.57-7.07-17.35-4.71-4.78-10.46-7.17-17.25-7.17h-2.91c-6.79,0-12.57,2.39-17.35,7.17-4.78,4.78-7.17,10.57-7.17,17.35v8.31c0,6.79,2.39,12.57,7.17,17.35,4.78,4.78,10.56,7.17,17.35,7.17h2.91c6.79,0,12.54-2.39,17.25-7.17,4.71-4.78,7.07-10.56,7.07-17.35Z"/>
  <path class="cls-3" d="m449.52,100.58h23.9v100.59h-23.69v-3.33c7.2-6.09,10.81-11.57,10.81-16.42v-4.16c-.28.7-.76,1.63-1.45,2.81-.69,1.18-2.22,3.29-4.57,6.34-2.36,3.05-4.89,5.75-7.59,8.1-2.7,2.36-6.34,4.47-10.91,6.34-4.57,1.87-9.35,2.81-14.34,2.81-13.17,0-24.42-4.67-33.77-14.03-9.35-9.35-14.03-20.61-14.03-33.77v-9.56c0-13.16,4.68-24.42,14.03-33.77,9.35-9.35,20.61-14.03,33.77-14.03,11.5,0,20.78,3.4,27.85,10.18v-8.1Zm0,54.66v-8.31c0-6.79-2.36-12.57-7.07-17.35-4.71-4.78-10.46-7.17-17.25-7.17h-2.91c-6.79,0-12.57,2.39-17.35,7.17-4.78,4.78-7.17,10.57-7.17,17.35v8.31c0,6.79,2.39,12.57,7.17,17.35,4.78,4.78,10.56,7.17,17.35,7.17h2.91c6.79,0,12.54-2.39,17.25-7.17,4.71-4.78,7.07-10.56,7.07-17.35Z"/>
  <path class="cls-3" d="m516.44,201.17h-23.9V62.55h23.9v138.62Z"/>
  <path class="cls-3" d="m607.05,100.58h23.69v96.01c0,2.22-.31,4.85-.93,7.9s-2.01,6.86-4.16,11.43c-2.15,4.57-4.88,8.69-8.21,12.36-3.32,3.67-8.07,6.86-14.24,9.56-6.17,2.7-13.27,4.05-21.3,4.05l-36.16.21.21-21.41h36.99c3.74,0,7.1-.83,10.08-2.49,2.98-1.66,5.3-3.67,6.96-6.03,1.66-2.36,3.05-4.75,4.16-7.17,1.11-2.43,1.87-4.47,2.29-6.13l.42-2.49c-6.38,4.57-16.84,6.86-31.38,6.86-12.33,0-22.79-4.81-31.38-14.44-8.59-9.63-12.89-20.89-12.89-33.77v-6.44c0-12.75,4.12-23.93,12.37-33.56,8.24-9.63,18.53-15.14,30.86-16.52,5.68-.55,11.05-.07,16.11,1.45,5.06,1.53,9.18,3.6,12.36,6.23,3.19,2.63,5.96,5.34,8.31,8.1,2.35,2.77,4.08,5.13,5.2,7.07l1.45,3.12v-3.95c0-2.77-1.11-5.61-3.33-8.52-1.11-1.38-2.29-2.73-3.53-4.05-1.25-1.31-2.22-2.25-2.91-2.81l-1.04-1.04v-3.53Zm0,54.45v-8.52c0-6.79-2.39-12.54-7.17-17.25-4.78-4.71-10.57-7.07-17.35-7.07h-2.91c-6.79,0-12.57,2.36-17.35,7.07-4.78,4.71-7.17,10.46-7.17,17.25v8.52c0,6.79,2.39,12.57,7.17,17.35,4.78,4.78,10.56,7.17,17.35,7.17h2.91c6.79,0,12.57-2.39,17.35-7.17,4.78-4.78,7.17-10.56,7.17-17.35Z"/>
  <path class="cls-3" d="m697.86,98.29c13.16,0,24.42,4.68,33.77,14.03s14.03,20.61,14.03,33.77v9.56c0,13.16-4.68,24.42-14.03,33.77s-20.61,14.03-33.77,14.03h-3.95c-13.17,0-24.42-4.68-33.77-14.03-9.35-9.35-14.03-20.61-14.03-33.77v-9.56c0-13.16,4.68-24.42,14.03-33.77,9.35-9.35,20.61-14.03,33.77-14.03h3.95Zm23.9,56.74v-8.52c0-6.79-2.36-12.54-7.07-17.25-4.71-4.71-10.46-7.07-17.25-7.07h-2.91c-6.79,0-12.57,2.36-17.35,7.07-4.78,4.71-7.17,10.46-7.17,17.25v8.52c0,6.79,2.39,12.57,7.17,17.35,4.78,4.78,10.56,7.17,17.35,7.17h2.91c6.79,0,12.54-2.39,17.25-7.17,4.71-4.78,7.07-10.56,7.07-17.35Z"/>
</svg>