<svg viewBox="0 0 202 202" fill="none" xmlns="http://www.w3.org/2000/svg">
<circle cx="100.702" cy="100.702" r="100.702" fill="#0094FF"/>
<path d="M141.505 98.8708C133.784 83.4402 118.5 73 101 73C83.4995 73 68.2113 83.4475 60.4953 98.8723C60.1697 99.5322 60 100.261 60 101.001C60 101.74 60.1697 102.469 60.4953 103.129C68.2156 118.56 83.4995 129 101 129C118.5 129 133.789 118.552 141.505 103.128C141.83 102.468 142 101.739 142 100.999C142 100.26 141.83 99.5307 141.505 98.8708ZM101 122C96.9455 122 92.982 120.768 89.6108 118.461C86.2396 116.153 83.612 112.874 82.0604 109.036C80.5088 105.199 80.1029 100.977 80.8939 96.9031C81.6849 92.8295 83.6373 89.0877 86.5043 86.1508C89.3713 83.2139 93.024 81.2138 97.0006 80.4035C100.977 79.5932 105.099 80.0091 108.845 81.5985C112.591 83.188 115.793 85.8796 118.045 89.333C120.298 92.7865 121.5 96.8466 121.5 101C121.501 103.758 120.972 106.489 119.942 109.038C118.912 111.586 117.403 113.902 115.499 115.852C113.595 117.803 111.334 119.349 108.847 120.404C106.359 121.459 103.692 122.001 101 122ZM101 87C99.7802 87.0175 98.5682 87.2034 97.3968 87.5527C98.3624 88.8968 98.8257 90.5509 98.7028 92.2149C98.5799 93.879 97.8789 95.4428 96.727 96.6228C95.5751 97.8028 94.0485 98.5209 92.4241 98.6468C90.7996 98.7727 89.185 98.298 87.8729 97.309C87.1257 100.129 87.2606 103.118 88.2585 105.855C89.2564 108.592 91.0671 110.94 93.4358 112.567C95.8044 114.195 98.6118 115.021 101.463 114.929C104.313 114.837 107.064 113.831 109.328 112.053C111.592 110.275 113.254 107.815 114.081 105.019C114.909 102.223 114.859 99.2313 113.94 96.4654C113.02 93.6995 111.277 91.2986 108.956 89.6007C106.635 87.9027 103.852 86.9931 101 87Z" fill="white"/>
</svg>
